<svg width="121" height="51" viewBox="0 0 121 51" fill="none" xmlns="http://www.w3.org/2000/svg">
<path d="M16.3083 13.087C16.3083 10.0811 13.9761 8.56079 10.5555 8.56079C7.46312 8.56079 7.25581 8.73355 7.25581 10.3575V16.4385C7.25581 17.3369 7.77409 17.7169 10.4346 17.7169C14.1834 17.7169 16.3083 15.9203 16.3083 13.087ZM7.25581 21.1375V26.2684C7.25581 27.3223 7.67043 27.8405 8.30964 28.2379C8.87974 28.6179 9.51894 28.8252 9.51894 29.3781C9.51894 29.7927 9.1907 30.0864 8.43057 30.0864C7.79136 30.0864 6.35748 30 5.52824 30C4.5608 30 3.45515 30.0864 2.88505 30.0864C2.07309 30.0864 1.7794 29.7754 1.7794 29.3781C1.7794 28.4625 3.38605 28.6179 3.59336 27.1495C3.69701 26.4239 3.73156 20.5502 3.73156 18.0106C3.73156 16.214 3.73156 10.5993 3.67973 10.0292C3.52425 8.02525 1.88306 8.23255 1.88306 7.17873C1.88306 6.79867 2.07309 6.4186 2.9196 6.4186C3.83522 6.4186 4.699 6.50498 6.18472 6.50498C8.01595 6.50498 9.24253 6.38405 11.6439 6.38405C17.2757 6.38405 20.1954 8.699 20.1954 12.7934C20.1954 14.8664 19.1588 17.3714 14.7362 18.8053C14.598 18.8571 14.5116 18.9262 14.5116 19.0472C14.5116 19.1336 14.598 19.2545 14.7708 19.3409C17.293 20.8957 18.6405 23.0724 20.1435 25.5429C20.8346 26.6831 21.2837 27.5123 22.2166 28.1342C22.9422 28.6352 23.4086 28.7561 23.4086 29.3262C23.4086 29.8791 22.9595 30.0864 22.5103 30.0864C21.8538 30.0864 20.5581 30 19.7807 30C18.5369 30 17.6385 30.0864 17.2239 30.0864C16.6365 30.0864 16.2219 29.7409 16.2219 29.3781C16.2219 28.8425 16.6538 28.7734 16.6538 27.9442C16.6538 25.6292 13.8552 21.7249 11.9721 20.602C10.901 20.0146 9.05249 19.9628 8.84518 19.9628C7.60133 19.9628 7.25581 20.3947 7.25581 21.1375ZM31.5585 14.1927C29.088 14.1927 27.0495 16.3176 27.0495 20.3947C27.0495 21.8113 27.2741 23.6944 28.0515 25.2492C29.1917 27.4605 31.0402 28.2379 32.6296 28.2379C35.0309 28.2379 37.2076 26.5103 37.2076 22.5714C37.2076 20.6884 36.7412 18.6844 35.9811 17.2332C34.8581 15.1947 33.2169 14.1927 31.5585 14.1927ZM23.4561 21.4485C23.4561 16.0585 26.9977 12.3096 31.8867 12.3096C36.5339 12.3096 40.6801 15.7648 40.6801 21.7595C40.6801 27.495 36.8103 30.3455 32.1286 30.3455C26.8249 30.3455 23.4561 26.614 23.4561 21.4485ZM57.9466 15.5229C58.3267 15.5229 60.2616 12.3096 63.9759 12.3096C67.2756 12.3096 69.3141 14.6073 69.3141 19.3236C69.3141 22.7787 68.8476 25.6983 68.8476 26.7867C68.8476 27.3741 69.1068 27.996 69.6251 28.3243C70.2297 28.7043 70.7307 28.7734 70.7307 29.3435C70.7307 29.7927 70.437 30.0864 69.5905 30.0864C68.934 30.0864 68.4849 30 67.6211 30C66.6882 30 66.2736 30.0864 65.5998 30.0864C65.0124 30.0864 64.8224 29.7581 64.8224 29.3781C64.8224 28.9462 65.0815 28.3934 65.1679 28.1169C65.4961 27.0977 65.928 23.8153 65.928 20.1355C65.928 16.5076 64.4942 14.7455 62.2829 14.7455C60.4344 14.7455 58.1885 16.4731 58.1885 19.0645C58.1885 22.5196 57.9639 25.6983 57.9639 26.7867C57.9639 27.3741 58.154 27.996 58.6377 28.3243C59.225 28.7043 59.726 28.7734 59.726 29.3435C59.726 29.7927 59.4324 30.0864 58.5858 30.0864C57.9294 30.0864 57.5666 30 56.7201 30C55.7699 30 55.3553 30.0864 54.6815 30.0864C54.1114 30.0864 53.9214 29.7581 53.9214 29.3781C53.9214 28.9462 54.1633 28.3934 54.2669 28.1169C54.5779 27.0977 54.8888 23.8153 54.8888 20.1355C54.8888 16.5076 53.5413 14.7455 51.33 14.7455C49.3088 14.7455 47.1493 17.0259 47.1493 18.6671V26.4239C47.1493 27.4777 47.3912 27.9269 47.8749 28.307C48.3413 28.6698 48.8423 28.7734 48.8423 29.3435C48.8423 29.7581 48.6177 30.0864 47.7885 30.0864C46.9593 30.0864 46.3892 30 45.5772 30C44.6961 30 44.0051 30.0864 43.0549 30.0864C42.2948 30.0864 42.0702 29.7581 42.0702 29.3781C42.0702 28.808 42.6231 28.6007 42.9513 28.3588C43.746 27.7542 43.8842 27.1322 43.8842 26.2684V16.5767C43.8842 15.7993 43.4005 15.5056 42.7785 15.2983C42.4503 15.1601 42.1221 14.9528 42.1221 14.5728C42.1221 13.899 42.8822 13.7781 43.8151 13.398C45.0244 12.897 45.5427 12.5169 46.0609 12.5169C46.4928 12.5169 46.7692 12.707 46.9074 13.3289C47.0802 14.2445 47.1147 15.2983 47.4084 15.2983C47.7021 15.2983 49.7925 12.3096 52.9885 12.3096C54.6643 12.3096 56.2018 12.9834 57.2038 14.6419C57.5666 15.1947 57.7393 15.5229 57.9466 15.5229ZM83.4311 23.107C83.4311 22.1568 83.3447 21.8113 83.1028 21.8113C81.2889 21.8113 79.9068 21.9495 78.7493 22.295C76.6072 22.9342 75.7952 24.299 75.7952 25.5774C75.7952 27.2532 77.1081 28.1515 78.7666 28.1515C81.4098 28.1515 83.4311 26.2512 83.4311 23.107ZM77.4364 20.8093C79.7686 20.2219 82.7573 20.1701 83.1374 19.911C83.2756 19.8073 83.4483 19.5827 83.4483 18.5635C83.4483 16.0239 82.3945 13.9336 79.7168 13.9336C77.5746 13.9336 76.6763 15.5402 76.348 17.0605C76.1753 17.8379 75.8988 18.2698 75.1042 18.2698C74.3268 18.2698 73.3248 17.6997 73.3248 16.3349C73.3248 14.4173 75.7261 12.3096 79.7859 12.3096C84.3812 12.3096 86.8171 15.1083 86.8171 19.2545C86.8171 21.5522 86.6271 24.6791 86.6271 26.0957C86.6271 26.8904 86.9035 27.6332 87.6464 27.6332C88.1128 27.6332 88.2683 27.4605 88.5447 27.4605C88.6311 27.4605 88.8211 27.5987 88.8211 27.996C88.8211 29.1708 87.6464 30.2419 86.1434 30.2419C84.8131 30.2419 83.8457 29.7063 83.362 28.3415C83.3101 28.1688 83.2065 28.0478 83.0856 28.0478C82.9646 28.0478 82.8264 28.2724 82.6882 28.4106C81.5307 29.5681 79.6304 30.4146 77.5228 30.4146C74.6032 30.4146 72.3228 28.8598 72.3228 26.1302C72.3228 23.4352 74.3268 21.6385 77.4364 20.8093ZM107.173 19.3236C107.173 22.7787 106.672 25.6983 106.672 26.7867C106.672 27.3741 106.949 27.9787 107.484 28.3243C108.106 28.687 108.642 28.7734 108.642 29.3435C108.642 29.7927 108.348 30.0864 107.484 30.0864C106.811 30.0864 106.396 30 105.446 30C104.496 30 104.012 30.0864 103.355 30.0864C102.733 30.0864 102.543 29.7581 102.543 29.3781C102.543 28.9462 102.837 28.3934 102.924 28.1169C103.252 27.0977 103.718 23.8153 103.718 20.1355C103.718 16.5076 102.198 14.7455 99.7966 14.7455C97.5335 14.7455 95.2185 17.0259 95.2185 18.6671V26.4239C95.2185 27.4777 95.4949 27.9269 96.0132 28.307C96.4969 28.6698 97.0498 28.7734 97.0498 29.3435C97.0498 29.7581 96.8079 30.0864 95.9441 30.0864C95.0803 30.0864 94.4584 30 93.6119 30C92.7308 30 92.0398 30.0864 91.0378 30.0864C90.2431 30.0864 90.0185 29.7581 90.0185 29.3781C90.0185 28.808 90.5886 28.6007 90.9341 28.3588C91.7634 27.7542 91.9189 27.1322 91.9189 26.2684V16.5767C91.9189 15.7993 91.4179 15.5056 90.7268 15.2811C90.3813 15.1429 90.0704 14.9183 90.0704 14.5728C90.0704 13.899 90.8132 13.7781 91.7461 13.398C92.9381 12.897 93.5601 12.5169 94.0956 12.5169C94.5275 12.5169 94.8039 12.707 94.9421 13.3289C95.1149 14.2445 95.184 15.2983 95.4777 15.2983C95.8059 15.2983 97.9999 12.3096 101.455 12.3096C104.979 12.3096 107.173 14.6073 107.173 19.3236Z" fill="#4E0E0E"/>
<path d="M19.1931 39.7857C18.1824 39.7857 17.0681 41.2628 17.0681 43.31C17.0681 44.4567 17.6512 44.8907 18.2602 44.8907C19.3874 44.8907 20.4239 43.4784 20.4239 41.5284C20.4239 40.4984 20.0417 39.7857 19.1931 39.7857ZM17.9168 36.0283C18.1306 36.0283 18.2019 36.1449 18.2019 36.3133C18.2019 36.9223 17.405 40.0773 17.405 40.317C17.405 40.3882 17.418 40.4077 17.4374 40.4077C17.4892 40.4077 17.5994 40.155 17.865 39.87C18.2666 39.4424 18.908 38.9176 19.7243 38.9176C21.0588 38.9176 21.7196 39.993 21.7196 41.3405C21.7196 43.9319 19.9575 45.6616 18.0917 45.6616C16.8867 45.6616 15.8178 44.9231 15.8178 43.2582C15.8178 41.9301 16.7248 37.9588 16.7248 37.596C16.7248 37.3304 16.6017 37.1944 16.4073 37.1425C16.2648 37.1037 16.1417 37.0259 16.1417 36.8964C16.1417 36.6696 16.3749 36.5206 16.8155 36.3327C17.2819 36.1384 17.7225 36.0283 17.9168 36.0283ZM24.3602 38.9176C24.6388 38.9176 24.7165 39.0666 24.7165 39.2221C24.7165 39.7209 23.6605 41.8977 23.6605 43.4979C23.6605 44.6769 24.263 44.7806 24.5869 44.7806C25.7466 44.7806 27.0099 42.6945 27.0099 41.1268C27.0099 40.7057 26.9256 40.4854 26.7378 40.2198C26.5499 39.9542 26.3426 39.9736 26.3426 39.7145C26.3426 39.3193 26.7054 38.9176 27.2301 38.9176C27.8197 38.9176 28.1241 39.4229 28.1241 40.4854C28.1241 42.0143 27.4763 44.217 26.7378 45.5969C25.915 47.1452 24.7489 48.3048 23.2977 48.3048C22.4555 48.3048 21.7623 47.8319 21.7623 47.1322C21.7623 46.7111 22.0927 46.3354 22.3972 46.3354C22.5592 46.3354 22.5786 46.601 22.6823 46.7759C22.8766 47.0999 23.1358 47.2812 23.6087 47.2812C25.2283 47.2812 26.3296 44.9749 26.3296 44.5085C26.3296 44.4761 26.3102 44.4502 26.2648 44.4502C26.1482 44.4502 25.3708 45.6552 24.1075 45.6552C23.2265 45.6552 22.4361 45.0786 22.4361 43.6404C22.4361 42.3188 23.1099 40.8741 23.1099 40.453C23.1099 40.1615 22.9414 40.0773 22.7276 40.019C22.5592 39.9606 22.4491 39.9023 22.4491 39.7339C22.4491 39.5266 22.6564 39.3711 22.9932 39.2221C23.4726 39.0213 24.1464 38.9176 24.3602 38.9176Z" fill="#4E0E0E"/>
<path d="M113.709 12.5805C113.607 11.9816 113.34 11.3366 112.907 10.6456C112.474 9.94534 111.857 9.29577 111.055 8.69688C110.263 8.09798 109.47 7.71561 108.678 7.54977V6.9693C109.461 6.78503 110.212 6.44412 110.931 5.94658C111.659 5.43982 112.267 4.83171 112.755 4.12226C113.253 3.39437 113.57 2.6757 113.709 1.96624H114.289C114.372 2.42693 114.538 2.90144 114.787 3.38977C115.035 3.86888 115.353 4.32957 115.74 4.77183C116.137 5.20487 116.579 5.59645 117.067 5.94658C117.795 6.46255 118.537 6.80345 119.292 6.9693V7.54977C118.785 7.65112 118.26 7.85843 117.717 8.17169C117.182 8.48496 116.685 8.85812 116.224 9.29116C115.763 9.71499 115.386 10.1619 115.091 10.6318C114.658 11.3228 114.391 11.9724 114.289 12.5805H113.709Z" fill="#C59745"/>
<path d="M108.711 38.8909V39.0416H108.34V39.8683H108.17V39.0416H107.793V38.8909H108.706H108.711Z" fill="#4E0E0E"/>
<path d="M109.62 38.8909H109.842V39.8683H109.677V39.182L109.424 39.8683H109.29L109.037 39.1872V39.8683H108.872V38.8909H109.088L109.351 39.6031L109.615 38.8909H109.62Z" fill="#4E0E0E"/>
<path d="M37.4492 40.1803C36.7372 39.8372 36.1851 39.5356 35.7981 39.2861C34.988 38.7662 34.7661 38.3555 34.7661 37.9032C34.7661 37.4145 35.0499 37.0974 35.4162 36.9154C36.1077 36.5723 36.8765 36.8478 37.3305 37.113C37.7382 37.3469 38.1303 37.6952 38.4863 38.1475C39.1932 39.0365 39.4048 39.6968 39.4409 39.8372C39.477 39.9775 39.4616 39.8632 39.477 39.8632H39.7815C39.8021 39.8632 39.8176 39.8476 39.8176 39.8216L39.5338 36.2344C39.5338 36.2084 39.4977 36.1928 39.477 36.2084L38.7547 36.7334C38.7443 36.7386 38.7289 36.7438 38.7185 36.7334C38.4554 36.6191 36.2883 35.6781 34.5184 36.5619C33.5019 37.0662 32.9086 38.0072 32.9086 39.1041C32.9086 40.2011 33.3575 40.8873 34.0489 41.402C34.4565 41.7035 36.9074 42.9877 37.2996 43.2268C38.0942 43.7259 38.3367 44.1158 38.3367 44.6721C38.3367 45.2284 38.0426 45.6079 37.5885 45.8366C37.346 45.9614 36.5617 46.3253 35.4059 45.4831C34.2708 44.6565 33.2904 43.1956 33.1408 42.551C33.1408 42.5354 33.1201 42.525 33.1046 42.525H32.8105C32.7899 42.525 32.7744 42.5458 32.7744 42.5665L33.1562 46.5177C33.1562 46.5437 33.1872 46.5593 33.2078 46.5489L34.2656 46.0394C34.2759 46.0394 34.2862 46.0394 34.2966 46.0394C34.4514 46.1018 35.2666 46.3929 35.8136 46.5177C36.087 46.5801 38.4502 47.0012 39.7195 45.1504C40.4368 44.1002 40.2716 42.7121 39.9208 42.0727C39.5699 41.4332 38.7805 40.8301 37.4441 40.1855L37.4492 40.1803Z" fill="#4E0E0E"/>
<path d="M46.0812 44.75C43.8212 45.9665 42.9698 43.3307 42.8202 42.7224C42.815 42.7016 42.8305 42.6808 42.8511 42.6756L46.9893 42.2805C47.01 42.2805 47.0203 42.2649 47.0203 42.2441C47.0151 42.0674 46.9635 41.2408 46.5972 40.5753C46.2308 39.9099 46.0141 39.7903 45.5859 39.5563C45.1627 39.3276 44.6674 39.208 44.1205 39.208C43.5735 39.208 42.9182 39.364 42.3919 39.6707C41.8656 39.9774 41.4477 40.4193 41.1484 40.9756C40.8491 41.5319 40.6943 42.1661 40.6943 42.8628C40.6943 43.5594 40.8491 44.2561 41.1536 44.8176C41.458 45.3842 41.8759 45.8261 42.3919 46.1329C42.9079 46.4396 43.4858 46.6008 44.105 46.6008C44.7242 46.6008 45.5033 46.3668 46.0141 45.9041C46.5353 45.4362 46.8913 44.828 47.077 44.0949C47.077 44.0741 47.0719 44.0585 47.0512 44.0533L46.7933 43.9649C46.7726 43.9597 46.752 43.9649 46.7468 43.9857C46.7055 44.1001 46.5456 44.4848 46.0709 44.7396L46.0812 44.75ZM44.7293 41.9322C44.4507 41.9686 43.0317 42.1506 42.7789 42.1869C42.5261 42.2233 42.7376 42.1713 42.7376 42.1506C42.6448 40.6637 43.1814 39.8319 43.8006 39.8319C44.8635 39.8319 44.7964 41.5527 44.7603 41.901C44.7242 42.2493 44.7448 41.9322 44.7293 41.9322Z" fill="#4E0E0E"/>
<path d="M55.9884 44.75C53.7284 45.9665 52.877 43.3307 52.7274 42.7224C52.7223 42.7016 52.7377 42.6808 52.7584 42.6756L56.8966 42.2805C56.9172 42.2805 56.9275 42.2649 56.9275 42.2441C56.9223 42.0674 56.8708 41.2408 56.5044 40.5753C56.1381 39.9099 55.9213 39.7903 55.4931 39.5563C55.07 39.3276 54.5746 39.208 54.0277 39.208C53.4807 39.208 52.8254 39.364 52.2991 39.6707C51.7728 39.9774 51.3549 40.4193 51.0556 40.9756C50.7564 41.5319 50.6016 42.1661 50.6016 42.8628C50.6016 43.5594 50.7564 44.2561 51.0608 44.8176C51.3652 45.3842 51.7832 45.8261 52.2991 46.1329C52.8151 46.4396 53.393 46.6008 54.0122 46.6008C54.6314 46.6008 55.4105 46.3668 55.9213 45.9041C56.4425 45.4362 56.7985 44.828 56.9843 44.0949C57.17 43.3619 56.9791 44.0585 56.9585 44.0533L56.7005 43.9649C56.6798 43.9597 56.6592 43.9649 56.654 43.9857C56.6128 44.1001 56.4528 44.4848 55.9781 44.7396L55.9884 44.75ZM54.6314 41.9322C54.3528 41.9686 52.9338 42.1506 52.681 42.1869C52.4281 42.2233 52.6397 42.1713 52.6397 42.1506C52.5468 40.6637 53.0834 39.8319 53.7026 39.8319C54.7655 39.8319 54.6985 41.5527 54.6623 41.901C54.6262 42.2493 54.6469 41.9322 54.6314 41.9322Z" fill="#4E0E0E"/>
<path d="M61.8193 44.9997C61.0247 44.9997 60.1888 44.5734 59.7554 43.4868C59.322 42.4003 59.4922 41.1214 59.6264 40.7366C60.0443 39.5565 61.0402 39.8112 61.2466 39.9048C61.7522 40.1388 61.6645 40.6223 61.6439 40.7522C61.6232 40.8822 61.4994 41.4489 61.4994 41.5841C61.4994 41.9012 61.6026 42.1611 61.809 42.3483C62.0102 42.5354 62.2734 42.6342 62.5881 42.6342C62.9029 42.6342 63.1609 42.5198 63.3776 42.2911C63.7749 41.87 63.8626 41.0226 63.3466 40.2999C62.8306 39.5773 62.1186 39.2134 60.9473 39.2134C59.776 39.2134 59.6728 39.3797 59.1414 39.7125C58.1249 40.3519 57.4541 41.5165 57.4541 42.9773C57.4541 44.1991 57.9133 45.4468 59.0485 46.1486C60.1372 46.8245 61.5974 46.7413 62.6397 46.0291C63.5117 45.4312 63.842 44.4278 63.8936 44.2511C63.9452 44.0743 63.8936 44.2199 63.8781 44.2095L63.5995 44.0483C63.584 44.0379 63.5582 44.0483 63.553 44.0587C63.455 44.2251 62.9493 44.9945 61.8348 44.9945L61.8193 44.9997Z" fill="#4E0E0E"/>
<path d="M63.7485 39.8996V40.0035C63.7485 40.0243 63.764 40.0399 63.7847 40.0399H64.8373C64.8579 40.0399 64.8734 40.0555 64.8734 40.0763L64.796 44.8801C64.7341 46.6061 66.5297 46.9596 67.7784 46.2473C68.3821 45.9042 68.7329 45.5039 68.8103 45.4103C68.8877 45.3168 68.8206 45.3791 68.8103 45.3687L68.6504 45.1088C68.6401 45.0932 68.6194 45.088 68.6039 45.0984C68.5162 45.1452 68.2634 45.2856 68.1292 45.3427C67.4946 45.5923 66.9941 45.3116 66.9941 44.3602V40.0867C66.9941 40.0659 67.0095 40.0503 67.0302 40.0503H68.7226C68.7433 40.0503 68.7587 40.0347 68.7587 40.0191L68.8413 39.2393C68.8413 39.2185 68.8258 39.1977 68.8 39.1977L67.0353 39.4109C67.0147 39.4109 66.9941 39.3953 66.9941 39.3745V36.9414C66.9941 36.9206 66.9786 36.905 66.9579 36.905H66.8444C66.8341 36.905 66.8238 36.905 66.8186 36.9154L63.7589 39.884C63.7537 39.8892 63.7485 39.8996 63.7485 39.91V39.8996Z" fill="#4E0E0E"/>
<path d="M49.8271 35.543L46.8293 36.6919C46.8035 36.7023 46.7983 36.7387 46.8241 36.7543L47.6755 37.3262C47.6858 37.3314 47.6909 37.3418 47.6909 37.3574V45.3064C47.6909 45.3168 47.6909 45.322 47.6806 45.3272L46.8447 46.3982C46.8241 46.4242 46.8447 46.4554 46.8705 46.4554H50.7043C50.7352 46.4554 50.7507 46.419 50.7301 46.3982L49.8787 45.3272C49.8787 45.322 49.8684 45.3116 49.8684 45.3064V35.5794C49.8684 35.5534 49.8426 35.5378 49.822 35.543H49.8271Z" fill="#4E0E0E"/>
<path d="M77.6489 42.2236C77.4167 41.8337 77.0607 41.5322 76.586 41.319C76.2919 41.1838 75.9617 41.0954 75.5953 41.0435C75.229 40.9915 75.5643 41.0019 75.5953 40.9915C75.8688 40.9239 76.1216 40.8303 76.3435 40.7107C76.7408 40.4976 77.0452 40.2116 77.2568 39.8685C77.4683 39.5254 77.5715 39.1199 77.5715 38.6728C77.5715 37.8514 77.2619 37.2379 76.6427 36.848C76.039 36.4685 75.1567 36.2761 74.0112 36.2761H68.8824C68.8514 36.2761 68.8359 36.3177 68.8566 36.3385L69.9453 37.3731C69.9505 37.3783 69.9556 37.3887 69.9556 37.3991V45.2285C69.9556 45.2389 69.9556 45.2493 69.9453 45.2545L68.8617 46.3411C68.8411 46.3619 68.8566 46.4035 68.8875 46.4035H73.3301C74.4395 46.4035 75.3476 46.2995 76.0236 46.0863C76.7098 45.8732 77.2155 45.5561 77.5302 45.1349C77.845 44.7138 77.9998 44.1784 77.9998 43.5337C77.9998 42.8891 77.8811 42.6083 77.6489 42.2236ZM75.2857 44.7814C75.1619 45.109 74.9761 45.3689 74.7233 45.5561C74.4705 45.7432 74.1505 45.8368 73.7687 45.8368C73.3869 45.8368 72.8503 45.816 72.6026 45.7848C72.5407 45.7744 72.4788 45.764 72.4117 45.7536C72.3446 45.7432 72.3807 45.7328 72.3807 45.7172C72.3807 45.3533 72.3807 41.8441 72.3807 41.449C72.3807 41.4282 72.3962 41.4126 72.4168 41.4126H72.9896C73.5675 41.4126 74.1248 41.5322 74.4498 41.7245C74.7955 41.9325 75.0587 42.208 75.2238 42.5407C75.3889 42.8787 75.4766 43.2582 75.4766 43.6689C75.4766 44.0796 75.4147 44.4539 75.2909 44.7918L75.2857 44.7814ZM75.1877 39.0211C75.1877 39.3798 75.1154 39.7022 74.9761 39.9725C74.8368 40.2428 74.6407 40.4508 74.3931 40.5964C74.1454 40.7419 73.8616 40.8199 73.5623 40.8199C73.2631 40.8199 72.6284 40.8095 72.4065 40.7835C72.1847 40.7575 72.3756 40.7679 72.3756 40.7471C72.3756 40.3988 72.3756 37.2535 72.3756 36.8844C72.3756 36.8636 72.391 36.848 72.4117 36.848H73.3663C73.9493 36.848 74.3982 37.0352 74.7078 37.4043C75.0226 37.7786 75.1774 38.3193 75.1774 39.0211H75.1877Z" fill="#4E0E0E"/>
<path d="M80.9619 35.4805L77.964 36.6294C77.9382 36.6398 77.9331 36.6762 77.9589 36.6918L78.8102 37.2637C78.8205 37.2689 78.8257 37.2793 78.8257 37.2949V45.2439C78.8257 45.2543 78.8257 45.2595 78.8154 45.2647L77.9795 46.3357C77.9589 46.3617 77.9795 46.3929 78.0053 46.3929H81.839C81.87 46.3929 81.8855 46.3565 81.8648 46.3357L81.0135 45.2647C81.0135 45.2595 81.0032 45.2491 81.0032 45.2439V35.5169C81.0032 35.4909 80.9774 35.4753 80.9567 35.4805H80.9619Z" fill="#4E0E0E"/>
<path d="M85.0644 39.1092L82.2317 40.1906C82.2059 40.201 82.2007 40.2322 82.2162 40.2478L82.9025 40.986C82.9076 40.9912 82.9128 41.0016 82.9128 41.012V45.2543C82.9128 45.2647 82.9128 45.2698 82.9076 45.275L82.082 46.3408C82.0614 46.3668 82.082 46.398 82.113 46.398H85.9313C85.9622 46.398 85.9777 46.3616 85.9622 46.3408L85.1263 45.2647C85.1263 45.2595 85.1212 45.2491 85.1212 45.2439V39.1404C85.1212 39.1144 85.0954 39.0988 85.0747 39.104L85.0644 39.1092Z" fill="#4E0E0E"/>
<path d="M93.2583 41.3137C93.2583 40.6118 93.0932 40.0712 92.7681 39.6968C92.443 39.3225 91.9838 39.1354 91.4111 39.1354C90.8383 39.1354 90.3894 39.2965 89.9457 39.6137C89.5742 39.8788 89.2594 40.2271 89.0014 40.6534C88.9859 40.6794 88.9498 40.6638 88.955 40.6378L89.084 39.1666C89.084 39.1406 89.0582 39.1198 89.0324 39.1302L86.2822 40.2323C86.2564 40.2427 86.2512 40.2739 86.2719 40.2895L86.9272 40.9706C86.9323 40.9758 86.9375 40.9862 86.9375 40.9966V45.2492C86.9375 45.2596 86.9375 45.2648 86.9272 45.27L86.0758 46.341C86.0552 46.367 86.0758 46.3982 86.1016 46.3982H89.9508C89.9818 46.3982 89.9973 46.3618 89.9766 46.341L89.1253 45.27C89.1253 45.2648 89.1149 45.2544 89.1149 45.2492V41.4073C89.1149 41.4021 89.1149 41.3917 89.1201 41.3865C89.2904 41.1317 89.4761 40.9394 89.6722 40.8198C89.8786 40.695 90.0747 40.6326 90.2553 40.6326C90.4359 40.6326 90.7042 40.721 90.8383 40.9082C90.9828 41.1005 91.055 41.3969 91.055 41.7972V45.2544C91.055 45.2596 91.055 45.27 91.0499 45.2752L90.2708 46.3462C90.2553 46.3722 90.2707 46.4034 90.3017 46.4034H94.0581C94.089 46.4034 94.1045 46.367 94.089 46.3462L93.2635 45.2752C93.2635 45.27 93.2583 45.2596 93.2583 45.2544V41.3137Z" fill="#4E0E0E"/>
<path d="M101.11 35.4805L98.1022 36.645C98.0765 36.6554 98.0713 36.697 98.0971 36.7126L98.933 37.2065C98.9433 37.2117 98.9485 37.2273 98.9485 37.2377V39.4732C98.9485 39.4992 98.9175 39.52 98.8969 39.5044C98.7472 39.4212 98.5873 39.3536 98.4222 39.2912C98.1384 39.1925 96.8845 38.9429 95.7907 39.598C94.6968 40.253 94.867 40.357 94.5678 40.9393C94.2737 41.5215 94.124 42.2234 94.124 43.024C94.124 43.8246 94.2427 44.4069 94.4749 44.9372C94.7071 45.4779 95.0373 45.8886 95.4449 46.1693C95.8577 46.45 96.3376 46.5904 96.8742 46.5904C97.4108 46.5904 97.8133 46.4552 98.2106 46.1953C98.5202 45.9925 98.804 45.717 99.062 45.3687C99.0775 45.3479 99.1136 45.3583 99.1084 45.3895L98.9639 46.5436C98.9639 46.5696 98.9846 46.5904 99.0104 46.5852L102.07 45.8106C102.096 45.8054 102.106 45.7742 102.091 45.7534L101.172 44.698C101.167 44.6928 101.162 44.6824 101.162 44.672V35.5169C101.162 35.4909 101.136 35.4753 101.11 35.4805ZM97.158 44.9372C96.931 44.7084 96.7555 44.3653 96.6265 43.913C96.4975 43.4555 96.4305 42.8888 96.4305 42.239C96.4305 41.5891 96.4872 41.1888 96.6059 40.8093C96.7194 40.435 96.8742 40.1594 97.0651 39.9827C97.256 39.8059 97.4521 39.7227 97.6688 39.7227C97.8855 39.7227 98.0971 39.8007 98.288 39.9567C98.4789 40.1179 98.6389 40.3726 98.7627 40.7157C98.8865 41.0692 98.9485 41.5215 98.9485 42.057V44.7084C98.9485 44.7136 98.9485 44.724 98.9433 44.7292C98.8349 44.8852 98.6956 45.0152 98.5254 45.1087C98.3448 45.2127 98.1539 45.2647 97.9578 45.2647C97.643 45.2647 97.3799 45.1555 97.158 44.932V44.9372Z" fill="#4E0E0E"/>
<path d="M102.505 46.6216C102.505 46.6424 102.53 46.6528 102.546 46.6424L103.175 46.2317C103.186 46.2265 103.196 46.2265 103.201 46.2317C103.325 46.2629 103.506 46.3044 103.691 46.3564C103.98 46.4292 104.285 46.5072 104.398 46.528C104.6 46.5696 104.821 46.5904 105.054 46.5904C105.595 46.5904 106.075 46.502 106.483 46.32C106.896 46.1381 107.221 45.8729 107.453 45.535C107.685 45.1919 107.804 44.7812 107.804 44.3029C107.804 43.8246 107.721 43.5699 107.566 43.2891C107.412 43.0136 107.164 42.7536 106.834 42.5145C106.509 42.2805 106.049 42.0258 105.466 41.7451C104.987 41.5111 104.62 41.3084 104.373 41.142C104.135 40.986 103.97 40.8353 103.888 40.7053C103.552 40.175 103.888 39.6655 104.538 39.6655C105.188 39.6655 105.095 39.7591 105.41 39.9359C105.73 40.1178 106.034 40.3674 106.318 40.6793L107.407 41.8594C107.432 41.8854 107.474 41.8646 107.468 41.8282L107.123 38.8909C107.123 38.8649 107.092 38.8493 107.071 38.8597L106.055 39.338C106.039 39.3432 106.029 39.3484 106.013 39.338C105.962 39.3276 105.461 39.2028 105.27 39.1716C105.054 39.1404 104.832 39.1196 104.6 39.1196C104.187 39.1196 103.789 39.208 103.418 39.3848C103.046 39.5615 102.737 39.8111 102.505 40.1334C102.272 40.4557 102.154 40.8353 102.154 41.2564C102.154 41.6775 102.216 41.9634 102.34 42.2338C102.463 42.5041 102.665 42.7484 102.943 42.9564C103.212 43.1643 103.583 43.3827 104.042 43.6166C104.527 43.861 104.914 44.0741 105.188 44.2457C105.451 44.4121 105.647 44.5836 105.776 44.7448C105.895 44.9008 105.957 45.0671 105.957 45.2595C105.957 45.4518 105.92 45.5402 105.848 45.6598C105.776 45.7794 105.678 45.8677 105.544 45.9301C105.41 45.9925 105.265 46.0237 105.116 46.0237C104.878 46.0237 104.594 45.9249 104.274 45.7274C103.944 45.5246 103.624 45.2439 103.315 44.8904C103.114 44.6616 102.525 43.9234 102.314 43.6582C102.293 43.6322 102.247 43.6478 102.252 43.6842L102.515 46.606L102.505 46.6216Z" fill="#4E0E0E"/>
<path d="M85.0738 36.8011H82.334C82.3133 36.8011 82.2979 36.8167 82.2979 36.8375V37.6953C82.2979 37.7109 82.3082 37.7213 82.3185 37.7317L85.0584 38.7975C85.0842 38.8079 85.11 38.7871 85.11 38.7611V36.8323C85.11 36.8115 85.0945 36.7959 85.0738 36.7959V36.8011Z" fill="#4E0E0E"/>
</svg>
